<svg width="25" height="24" viewBox="0 0 25 24" fill="none" xmlns="http://www.w3.org/2000/svg">
<path fill-rule="evenodd" clip-rule="evenodd" d="M5.75 6.75C5.75 6.33579 6.08579 6 6.5 6H18.5C18.9142 6 19.25 6.33579 19.25 6.75C19.25 7.16421 18.9142 7.5 18.5 7.5H6.5C6.08579 7.5 5.75 7.16421 5.75 6.75ZM5.75 12C5.75 11.5858 6.08579 11.25 6.5 11.25H18.5C18.9142 11.25 19.25 11.5858 19.25 12C19.25 12.4142 18.9142 12.75 18.5 12.75H6.5C6.08579 12.75 5.75 12.4142 5.75 12ZM5.75 17.25C5.75 16.8358 6.08579 16.5 6.5 16.5H18.5C18.9142 16.5 19.25 16.8358 19.25 17.25C19.25 17.6642 18.9142 18 18.5 18H6.5C6.08579 18 5.75 17.6642 5.75 17.25Z" fill="white"/>
</svg>
