<svg width="782" height="672" viewBox="0 0 782 672" fill="none" xmlns="http://www.w3.org/2000/svg">
<path d="M23.9 50.8001H0.150002V3.30005H99.73V50.8001H75.98V313.29H23.9V50.8001Z" fill="white"/>
<path d="M233.07 256.21C233.07 294.96 211.82 316.21 177.24 316.21H168.49C131.82 316.21 112.24 294.54 112.24 256.21V61.6299C112.24 23.2999 128.91 0.379883 168.49 0.379883H176.82C216.4 0.379883 233.07 24.5499 233.07 61.6299V256.21ZM178.9 55.7999C178.9 49.5499 176.82 46.6299 172.65 46.6299C168.9 46.6299 166.82 49.5499 166.82 55.7999V260.79C166.82 266.21 168.9 269.12 172.65 269.12C176.82 269.12 178.9 266.2 178.9 260.79V55.7999Z" fill="white"/>
<path d="M249.75 3.30005H325.16C348.08 3.30005 365.99 14.97 365.99 47.88V266.2C365.99 299.12 349.32 313.28 325.99 313.28H249.74V3.30005H249.75ZM301.42 269.54H306.42C311.42 269.54 312.67 266.21 312.67 259.12V55.38C312.67 49.13 311.42 45.8001 306.42 45.8001H301.42V269.54Z" fill="white"/>
<path d="M441.84 257.46H423.92L421 313.29H375.58L401.43 3.30005H468.09L496.01 313.29H444.76L441.84 257.46ZM433.09 94.1301L426.84 212.04H439.34L433.09 94.1301Z" fill="white"/>
<path d="M517.27 191.21L483.1 3.30005H535.6L544.77 110.38L553.94 3.30005H601.02L569.77 191.21V313.29H517.27V191.21Z" fill="white"/>
<path d="M617.68 79.55C620.6 71.63 624.76 58.3001 624.76 48.7201H609.76V3.30005H650.59V38.7201C650.59 54.9701 645.17 71.64 641.42 79.55H617.68Z" fill="white"/>
<path d="M715.19 316.21C680.61 316.21 663.53 300.38 663.53 268.3V187.05H715.19V264.55C715.19 269.97 716.86 272.88 720.61 272.88C724.36 272.88 726.44 269.96 726.44 264.13V203.72C726.44 193.72 725.19 189.55 717.27 182.47L690.19 159.14C672.27 144.14 664.77 127.06 664.77 103.73V48.7299C664.77 19.9799 679.77 0.399902 717.68 0.399902H729.76C767.68 0.399902 779.76 19.5699 779.76 44.5599V112.89H728.93V47.0599C728.93 42.4799 727.26 40.3899 723.51 40.3899C719.76 40.3899 718.09 42.4699 718.09 47.0599V99.9699C718.09 108.3 719.76 111.22 726.42 117.47L753.09 140.8C773.92 158.3 781.84 172.05 781.84 199.55V261.21C781.84 294.54 765.59 316.21 727.26 316.21H715.19V316.21Z" fill="white"/>
<path d="M23.9 409.12H0.150002V361.62H99.73V409.12H75.98V671.61H23.9V409.12Z" fill="white"/>
<path d="M114.74 361.63H167.65V482.04H178.9V361.63H231.4V671.62H178.9V536.62H167.65V671.61H114.74V361.63V361.63Z" fill="white"/>
<path d="M337.24 361.63V409.13H299.74V484.54H331.4V533.7H299.74V623.28H338.49V671.61H248.08V361.63H337.24Z" fill="white"/>
<path d="M386.81 361.63H462.22C485.14 361.63 503.05 373.3 503.05 406.21V624.53C503.05 657.45 486.38 671.61 463.05 671.61H386.8V361.63H386.81ZM438.48 627.87H443.48C448.48 627.87 449.73 624.54 449.73 617.45V413.71C449.73 407.46 448.48 404.13 443.48 404.13H438.48V627.87Z" fill="white"/>
<path d="M578.9 615.78H560.98L558.06 671.61H512.64L538.47 361.62H605.13L633.05 671.61H581.8L578.9 615.78ZM570.15 452.46L563.9 570.37H576.4L570.15 452.46Z" fill="white"/>
<path d="M655.17 549.54L621 361.63H673.5L682.67 468.71L691.84 361.63H738.92L707.67 549.54V671.62H655.17V549.54Z" fill="white"/>
<path d="M764.73 671.61H720.15V618.28H764.73V671.61Z" fill="white"/>
</svg>
