<svg width="22" height="19" viewBox="0 0 22 19" fill="none" xmlns="http://www.w3.org/2000/svg">
<path d="M16 7.61865C19.0376 7.61865 21.5 10.0811 21.5 13.1187C21.5 16.1563 19.0376 18.6187 16 18.6187C12.9624 18.6187 10.5 16.1563 10.5 13.1187C10.5 10.0811 12.9624 7.61865 16 7.61865ZM16 9.61785L15.9101 9.62595C15.706 9.66295 15.5451 9.82395 15.5081 10.0281L15.5 10.1179L15.4996 12.6179L12.9977 12.6187L12.9078 12.6268C12.7037 12.6638 12.5427 12.8247 12.5057 13.0288L12.4977 13.1187L12.5057 13.2086C12.5427 13.4127 12.7037 13.5736 12.9078 13.6106L12.9977 13.6187L15.5007 13.6179L15.5011 16.1222L15.5092 16.2121C15.5462 16.4162 15.7071 16.5771 15.9112 16.6141L16.0011 16.6222L16.091 16.6141C16.2951 16.5771 16.456 16.4162 16.4931 16.2121L16.5011 16.1222L16.5007 13.6179L19.0046 13.6187L19.0944 13.6106C19.2985 13.5736 19.4595 13.4127 19.4965 13.2086L19.5046 13.1187L19.4965 13.0288C19.4595 12.8247 19.2985 12.6638 19.0944 12.6268L19.0046 12.6187L16.4996 12.6179L16.5 10.1179L16.4919 10.0281C16.4549 9.82395 16.294 9.66295 16.0899 9.62595L16 9.61785ZM6.70693 0.618652C7.16749 0.618652 7.6153 0.759942 7.99094 1.021L8.14734 1.14015L10.522 3.11865H18.25C19.3867 3.11865 20.3266 3.96162 20.4785 5.05653L20.4948 5.2146L20.5 5.36865L20.5008 8.42905C20.0566 8.00265 19.552 7.63865 19.0011 7.35145L19 5.36865C19 4.98895 18.7178 4.67516 18.3518 4.6255L18.25 4.61865H10.521L8.14734 6.59715C7.79353 6.89195 7.35906 7.07015 6.90335 7.11005L6.70693 7.11865L2 7.11765V14.3687C2 14.7484 2.28215 15.0622 2.64823 15.1119L2.75 15.1187L9.8136 15.1191C9.9861 15.6529 10.2258 16.1565 10.5226 16.6199L2.75 16.6187C1.55914 16.6187 0.58436 15.6935 0.50519 14.5227L0.5 14.3687V2.86865C0.5 1.67779 1.42516 0.703012 2.59595 0.623842L2.75 0.618652H6.70693ZM6.70693 2.11865H2.75C2.3703 2.11865 2.05651 2.4008 2.00685 2.76688L2 2.86865V5.61765L6.70693 5.61865C6.84729 5.61865 6.9841 5.57928 7.10221 5.50603L7.18706 5.44482L9.078 3.86765L7.18706 2.29248C7.07923 2.20263 6.94893 2.14529 6.81129 2.12595L6.70693 2.11865Z" fill="#212121"/>
</svg>
