<svg width="21" height="22" viewBox="0 0 21 22" fill="none" xmlns="http://www.w3.org/2000/svg">
<path d="M8.5911 0.893377C9.4947 0.527077 10.5053 0.527077 11.4089 0.893377L18.9075 3.93335C19.5679 4.20108 20 4.84253 20 5.55514V11.1909C19.5557 10.7646 19.051 10.4008 18.5 10.1136V6.15353L10.7503 9.14577V11.4439C10.0581 12.1845 9.5371 13.0871 9.2503 14.0887V9.14447L1.5 6.1304V15.2079C1.5 15.3097 1.56173 15.4013 1.65607 15.4396L9.1547 18.4795C9.1863 18.4924 9.2183 18.5045 9.2503 18.5158V18.5146L9.439 18.5913C9.4976 18.6152 9.5575 18.6352 9.618 18.6513C9.8663 19.1777 10.1832 19.6653 10.5572 20.1028C9.898 20.2018 9.2187 20.1241 8.5911 19.8696L1.09252 16.8297C0.43211 16.5619 0 15.9205 0 15.2079V5.55514C0 4.84253 0.43211 4.20108 1.09252 3.93335L8.5911 0.893377ZM10.8453 2.28349C10.3032 2.06371 9.6968 2.06371 9.1547 2.28349L7.24127 3.05919L14.7684 5.98641L17.4373 4.95591L10.8453 2.28349ZM2.58998 4.94485L10.0013 7.82704L12.6917 6.78824L5.21503 3.88064L2.58998 4.94485ZM15.5 21.3814C18.5376 21.3814 21 18.9189 21 15.8814C21 12.8438 18.5376 10.3814 15.5 10.3814C12.4624 10.3814 10 12.8438 10 15.8814C10 18.9189 12.4624 21.3814 15.5 21.3814ZM14.5 17.1743L18.1464 13.5278C18.3417 13.3326 18.6583 13.3326 18.8536 13.5278C19.0488 13.7231 19.0488 14.0397 18.8536 14.2349L14.8536 18.2349C14.6583 18.4302 14.3417 18.4302 14.1464 18.2349L12.1464 16.2349C11.9512 16.0397 11.9512 15.7231 12.1464 15.5278C12.3417 15.3326 12.6583 15.3326 12.8536 15.5278L14.5 17.1743Z" fill="black"/>
</svg>
