<svg width="16" height="20" viewBox="0 0 16 20" fill="none" xmlns="http://www.w3.org/2000/svg">
<path d="M0 4.74814C0 3.50535 1.00742 2.49786 2.25013 2.49786H11.2506C12.4933 2.49786 13.5008 3.50535 13.5008 4.74814V19.2499C13.5008 19.5185 13.3572 19.7666 13.1243 19.9003C12.8914 20.0341 12.6048 20.0332 12.3728 19.8978L6.7504 16.6179L1.12797 19.8978C0.89599 20.0332 0.60936 20.0341 0.37648 19.9003C0.14359 19.7666 0 19.5185 0 19.2499V4.74814ZM2.25013 3.99805C1.83589 3.99805 1.50008 4.33387 1.50008 4.74814V17.944L6.3725 15.1016C6.606 14.9653 6.8948 14.9653 7.1283 15.1016L12.0007 17.944V4.74814C12.0007 4.33387 11.6649 3.99805 11.2506 3.99805H2.25013ZM11.2497 0C13.8732 0 16 2.12691 16 4.75058V16.6232C16 17.0374 15.6642 17.3733 15.25 17.3733C14.8357 17.3733 14.4999 17.0374 14.4999 16.6232V4.75058C14.4999 2.95543 13.0448 1.50018 11.2497 1.50018H2.63687C2.63687 1.50018 2.75016 0.94339 3.43379 0.41948C4.00023 8.9407e-08 4.60182 0 4.60182 0H11.2497Z" fill="black"/>
</svg>
