<svg width="16" height="21" viewBox="0 0 16 21" fill="none" xmlns="http://www.w3.org/2000/svg">
<path d="M0 5.36679C0 4.124 1.00742 3.11651 2.25013 3.11651H11.2506C12.4933 3.11651 13.5008 4.124 13.5008 5.36679V19.8686C13.5008 20.1372 13.3572 20.3853 13.1243 20.519C12.8914 20.6528 12.6048 20.6519 12.3728 20.5165L6.7504 17.2366L1.12797 20.5165C0.89599 20.6519 0.60936 20.6528 0.37648 20.519C0.14359 20.3853 0 20.1372 0 19.8686V5.36679ZM2.25013 4.6167C1.83589 4.6167 1.50008 4.95252 1.50008 5.36679V18.5627L6.3725 15.7203C6.606 15.584 6.8948 15.584 7.1283 15.7203L12.0007 18.5627V5.36679C12.0007 4.95252 11.6649 4.6167 11.2506 4.6167H2.25013ZM11.2497 0.618652C13.8732 0.618652 16 2.74556 16 5.36923V17.2419C16 17.6561 15.6642 17.992 15.25 17.992C14.8357 17.992 14.4999 17.6561 14.4999 17.2419V5.36923C14.4999 3.57408 13.0448 2.11883 11.2497 2.11883H2.63687C2.63687 2.11883 2.75016 1.56204 3.43379 1.03813C4.00023 0.618652 4.60182 0.618652 4.60182 0.618652H11.2497Z" fill="#636363"/>
</svg>
