<svg width="18" height="20" viewBox="0 0 18 20" fill="none" xmlns="http://www.w3.org/2000/svg">
<path d="M8.9876 0.25C10.4351 0.25 11.7878 0.65687 12.9353 1.36448C12.5934 1.72975 12.329 2.16821 12.1682 2.65375C11.2457 2.08007 10.1554 1.74959 8.9876 1.74959C5.66297 1.74959 2.97997 4.42312 2.97949 7.74797V12.1564L1.63369 15.2497H16.3502L14.9958 12.1574L14.9959 7.76082L14.9921 7.53568C14.9884 7.42734 14.9818 7.31977 14.9725 7.21302C15.1435 7.23862 15.3185 7.25189 15.4966 7.25189C15.8347 7.25189 16.1616 7.20409 16.4709 7.11489C16.4816 7.24138 16.4892 7.3688 16.4936 7.49709L16.4978 7.74797V11.8439L17.8797 14.999C17.9489 15.1569 17.9846 15.3274 17.9846 15.4997C17.9846 16.1898 17.4241 16.7493 16.7329 16.7493L11.9917 16.7508C11.9917 18.4072 10.6467 19.75 8.9876 19.75C7.3878 19.75 6.08004 18.5014 5.98867 16.9271L5.98312 16.7486L1.25202 16.7493C1.08044 16.7493 0.910702 16.7141 0.753342 16.6459C0.119282 16.3709 -0.171468 15.6348 0.103942 15.0018L1.47746 11.8448V7.74786C1.47805 3.59419 4.8341 0.25 8.9876 0.25ZM10.4892 16.7486L7.4856 16.7508C7.4856 17.579 8.1581 18.2504 8.9876 18.2504C9.7684 18.2504 10.41 17.6557 10.4828 16.8952L10.4892 16.7486ZM13.033 3.30656C13.1282 2.77942 13.3889 2.30974 13.7595 1.9531C14.2097 1.51992 14.822 1.25351 15.4966 1.25351C16.8792 1.25351 18 2.37249 18 3.75283C18 4.84572 17.2974 5.77477 16.3185 6.11432C16.0611 6.20363 15.7845 6.25216 15.4966 6.25216C15.2482 6.25216 15.0083 6.21604 14.7818 6.14878C13.7475 5.84166 12.9932 4.88518 12.9932 3.75283C12.9932 3.60051 13.0069 3.45137 13.033 3.30656Z" fill="#636363"/>
</svg>
