<svg width="32" height="32" viewBox="0 0 32 32" fill="none" xmlns="http://www.w3.org/2000/svg">
<path fill-rule="evenodd" clip-rule="evenodd" d="M16.8635 6.99565C16.6842 6.6887 16.3555 6.5 16 6.5C15.6446 6.5 15.3158 6.6887 15.1365 6.99565L12.4779 11.5475L7.28658 12.6815C6.93755 12.7578 6.65571 13.0144 6.54722 13.3548C6.43872 13.6952 6.52006 14.0676 6.76058 14.3318L10.288 18.2058L9.73561 23.3941C9.69801 23.7473 9.85055 24.0939 10.1364 24.3047C10.4222 24.5156 10.7984 24.559 11.1247 24.4188L16 22.3242L20.8752 24.4188C21.2016 24.559 21.5778 24.5156 21.8636 24.3048C22.1494 24.0939 22.302 23.7473 22.2644 23.3941L21.712 18.2058L25.2394 14.3318C25.48 14.0676 25.5613 13.6952 25.4528 13.3548C25.3443 13.0144 25.0625 12.7578 24.7134 12.6815L19.5222 11.5475L16.8635 6.99565Z" fill="#DBDDE1"/>
<path fill-rule="evenodd" clip-rule="evenodd" d="M16 6.5V22.3242L11.1247 24.4188C10.7984 24.559 10.4222 24.5156 10.1364 24.3047C9.85055 24.0939 9.69801 23.7473 9.73561 23.3941L10.288 18.2058L6.76058 14.3318C6.52006 14.0676 6.43872 13.6952 6.54722 13.3548C6.65571 13.0144 6.93755 12.7578 7.28658 12.6815L12.4779 11.5475L15.1365 6.99565C15.3158 6.68871 15.6445 6.50001 16 6.5Z" fill="#FCD549"/>
</svg>
