<svg width="20" height="17" viewBox="0 0 20 17" fill="none" xmlns="http://www.w3.org/2000/svg">
<path d="M18.0172 6.12063V5.36853C18.0172 4.12589 17.0098 3.11853 15.7672 3.11853H10.0419L7.6609 1.13863C7.25681 0.802612 6.74785 0.618652 6.22231 0.618652H2.26679C1.02445 0.618652 0.0172175 1.62554 0.0167875 2.86787L0.0128175 14.3679C0.0123975 15.6109 1.01988 16.6187 2.26282 16.6187H2.28918C2.29329 16.6187 2.29741 16.6187 2.30153 16.6187H16.4865C17.2895 16.6187 17.9894 16.0723 18.1842 15.2933L19.9341 8.29515C20.2103 7.19065 19.3749 6.12063 18.2364 6.12063H18.0172ZM2.26679 2.11865H6.22231C6.39749 2.11865 6.56714 2.17997 6.70184 2.29198L9.29123 4.4452C9.42593 4.5572 9.59563 4.61853 9.77083 4.61853H15.7672C16.1814 4.61853 16.5172 4.95431 16.5172 5.36853V6.12063H4.44107C3.40857 6.12063 2.50859 6.82335 2.25822 7.82505L1.51405 10.8024L1.51679 2.86839C1.51693 2.45428 1.85268 2.11865 2.26679 2.11865ZM3.71345 8.18875C3.79691 7.85485 4.0969 7.62065 4.44107 7.62065H18.2364C18.399 7.62065 18.5184 7.77345 18.4789 7.93125L16.729 14.9294C16.7012 15.0407 16.6012 15.1187 16.4865 15.1187H2.30153C2.13889 15.1187 2.01955 14.9659 2.05899 14.8081L3.71345 8.18875Z" fill="#212121"/>
</svg>
